<svg width="100" height="22" viewBox="0 0 100 22" fill="none" xmlns="http://www.w3.org/2000/svg">
<g clip-path="url(#clip0_29_438)">
<path d="M0 2.24917C0 1.16479 0.879067 0.285721 1.96346 0.285721H9.64366C10.728 0.285721 11.6071 1.16479 11.6071 2.24918V3.76828C11.6071 4.31047 11.1676 4.75001 10.6254 4.75001H0.981723C0.439534 4.75001 0 4.31047 0 3.76828V2.24917Z" fill="#CDFA8A"/>
<path d="M0 8.4103C0 7.86811 0.439534 7.42857 0.981723 7.42857H19.4651C20.5495 7.42857 21.4286 8.30764 21.4286 9.39206V14.4826C21.4286 15.0247 20.989 15.4643 20.4469 15.4643H1.96346C0.879068 15.4643 0 14.5852 0 13.5008V8.4103Z" fill="#CDFA8A"/>
<path d="M9.82141 19.1246C9.82141 18.5824 10.261 18.1429 10.8031 18.1429H20.4469C20.989 18.1429 21.4286 18.5824 21.4286 19.1246V19.7508C21.4286 20.8352 20.5494 21.7143 19.4651 21.7143H11.7849C10.7005 21.7143 9.82141 20.8352 9.82141 19.7508V19.1246Z" fill="#CDFA8A"/>
<path d="M33.5674 13.4473H35.6313L39.4641 19.7126H44.157L39.9065 13.005C42.2651 12.1942 43.641 10.3761 43.641 7.74708C43.641 4.0616 41.0612 2.07144 36.9089 2.07144H29.4642V19.7126H33.5674V13.4473ZM33.5674 10.1058V5.5358H36.6878C38.6288 5.5358 39.6116 6.37117 39.6116 7.8208C39.6116 9.24582 38.6288 10.1058 36.6878 10.1058H33.5674Z" fill="#CDFA8A"/>
<path d="M51.2169 19.9829C53.7967 19.9829 56.1555 18.6807 57.1137 16.1991L53.8214 15.1426C53.4528 16.2729 52.4946 16.8625 51.2661 16.8625C49.7673 16.8625 48.7108 15.8552 48.4406 14.0861H57.212V13.0542C57.212 9.39322 55.0744 6.494 51.1433 6.494C47.4086 6.494 44.6567 9.39322 44.6567 13.2262C44.6567 17.2556 47.3103 19.9829 51.2169 19.9829ZM51.0941 9.54072C52.5437 9.54072 53.3054 10.5235 53.33 11.6782H48.5634C48.9565 10.2532 49.8901 9.54072 51.0941 9.54072Z" fill="#CDFA8A"/>
<path d="M59.4404 16.2482C59.4404 18.9018 60.8409 19.8354 63.6419 19.8354C64.5755 19.8354 65.3126 19.7618 66.0005 19.6635V16.4448C65.5583 16.4939 65.3371 16.5185 64.8704 16.5185C63.8876 16.5185 63.3224 16.322 63.3224 15.2409V10.0075H65.8531V6.76427H63.3224V3.17706H59.4404V6.76427H57.7942V10.0075H59.4404V16.2482Z" fill="#CDFA8A"/>
<path d="M80.0642 13.2507C80.0642 9.22125 77.3861 6.494 73.5777 6.494C69.7449 6.494 67.0913 9.22125 67.0913 13.2507C67.0913 17.2802 69.7449 19.9829 73.5777 19.9829C77.3861 19.9829 80.0642 17.2802 80.0642 13.2507ZM70.9979 13.2507C70.9979 10.9903 72.0053 9.71268 73.5777 9.71268C75.1502 9.71268 76.1576 10.9903 76.1576 13.2507C76.1576 15.5112 75.1502 16.7888 73.5777 16.7888C72.0053 16.7888 70.9979 15.5112 70.9979 13.2507Z" fill="#CDFA8A"/>
<path d="M94.2205 13.2507C94.2205 9.22125 91.5428 6.494 87.7343 6.494C83.9014 6.494 81.2478 9.22125 81.2478 13.2507C81.2478 17.2802 83.9014 19.9829 87.7343 19.9829C91.5428 19.9829 94.2205 17.2802 94.2205 13.2507ZM85.1545 13.2507C85.1545 10.9903 86.1618 9.71268 87.7343 9.71268C89.3071 9.71268 90.3142 10.9903 90.3142 13.2507C90.3142 15.5112 89.3071 16.7888 87.7343 16.7888C86.1618 16.7888 85.1545 15.5112 85.1545 13.2507Z" fill="#CDFA8A"/>
<path d="M100 2.07144H96.0687V19.7126H100V2.07144Z" fill="#CDFA8A"/>
</g>
<defs>
<clipPath id="clip0_29_438">
<rect width="100" height="21.4286" fill="white" transform="translate(0 0.285721)"/>
</clipPath>
</defs>
</svg>
