<svg width="101" height="22" viewBox="0 0 101 22" fill="none" xmlns="http://www.w3.org/2000/svg">
<g clip-path="url(#clip0_29_448)">
<path d="M33.2069 17.0194H43.6204V14.1329H36.5596V1.47682H33.2069V17.0194ZM50.3242 17.1971C53.7657 17.1971 56.2304 14.7546 56.2304 11.4241C56.2304 8.09347 53.7657 5.65107 50.3242 5.65107C46.8826 5.65107 44.418 8.09347 44.418 11.4241C44.418 14.7546 46.8826 17.1971 50.3242 17.1971ZM50.3242 14.5326C48.6589 14.5326 47.5265 13.267 47.5265 11.4241C47.5265 9.55891 48.6589 8.2934 50.3242 8.2934C51.9895 8.2934 53.1219 9.55891 53.1219 11.4241C53.1219 13.267 51.9895 14.5326 50.3242 14.5326ZM64.1006 14.7324H61.1252C60.5257 14.7324 60.1927 14.5326 60.1927 14.1107C60.1927 13.822 60.3703 13.6 60.7034 13.2447C61.2141 13.3779 61.7914 13.4668 62.3909 13.4668C65.0997 13.4668 66.9423 11.9348 66.9423 9.5589C66.9423 8.71522 66.6983 7.98253 66.2763 7.38298L67.7197 5.6733L65.8769 4.11905L64.3226 5.96194C63.7454 5.76214 63.1013 5.65107 62.3909 5.65107C59.7264 5.65107 57.8613 7.20531 57.8613 9.5589C57.8613 10.5137 58.15 11.3352 58.6828 11.957C57.7947 12.7341 57.2396 13.4668 57.2396 14.4882C57.2396 15.0876 57.506 15.6206 57.9501 16.0424C57.284 16.6197 56.8621 17.4635 56.8621 18.1962C56.8621 20.2612 57.9279 21.5489 60.7477 21.5489H64.1894C66.4983 21.5489 67.9637 20.0835 67.9637 17.9519C67.9637 15.9536 66.3876 14.7324 64.1006 14.7324ZM62.3909 8.00473C63.3456 8.00473 64.0561 8.62641 64.0561 9.5589C64.0561 10.4915 63.3456 11.0911 62.3909 11.0911C61.4584 11.0911 60.7477 10.4915 60.7477 9.5589C60.7477 8.62641 61.4584 8.00473 62.3909 8.00473ZM64.034 19.0843H60.9032C60.2815 19.0843 59.8819 18.5737 59.8819 17.9964C59.8819 17.6412 59.9707 17.3746 60.2371 17.0638C60.5479 17.1082 60.881 17.1304 61.2141 17.1304H63.8786C64.6335 17.1304 64.9443 17.4857 64.9443 18.1074C64.9443 18.6403 64.7444 19.0843 64.034 19.0843ZM70.8756 2.52039V5.05165C70.8756 5.6067 70.565 5.82874 70.0983 5.82874H68.7216V8.40434H70.8756V12.9561C70.8756 15.554 72.541 17.0194 75.1164 17.0194H76.9591V14.2218H75.5384C74.5391 14.2218 73.9617 13.7111 73.9617 12.6231V8.40434H76.9591V5.82874H73.9617V2.52039H70.8756ZM83.3158 17.1971C84.6258 17.1971 85.8025 16.6641 86.3578 15.8426V17.0194H89.4659V5.82874H86.3578V6.9389C85.7358 6.16184 84.6258 5.65107 83.2711 5.65107C80.0077 5.65107 78.031 7.93806 78.031 11.4241C78.031 14.9101 80.0077 17.1971 83.3158 17.1971ZM83.8044 14.5326C82.1611 14.5326 81.0731 13.2892 81.0731 11.4241C81.0731 9.53677 82.1611 8.2934 83.8044 8.2934C85.4698 8.2934 86.5578 9.53677 86.5578 11.4241C86.5578 13.2892 85.4698 14.5326 83.8044 14.5326ZM91.785 0.877319V4.16347H95.1818V0.877319H91.785ZM91.9177 17.0194H95.0265V5.82874H91.9177V17.0194ZM97.473 17.0194H100.559V0.966135H97.473V17.0194Z" fill="#CDFA8A"/>
<path d="M12.596 7.86932H3.36827C1.83938 7.86932 0.599976 9.10874 0.599976 10.6376C0.599976 12.1665 1.83938 13.4059 3.36827 13.4059H12.596C14.1248 13.4059 15.3642 12.1665 15.3642 10.6376C15.3642 9.10874 14.1248 7.86932 12.596 7.86932Z" fill="#CDFA8A"/>
<path d="M18.1324 15.2515H14.4414C12.9124 15.2515 11.6731 16.4908 11.6731 18.0197C11.6731 19.5486 12.9124 20.788 14.4414 20.788H18.1324C19.6613 20.788 20.9007 19.5486 20.9007 18.0197C20.9007 16.4908 19.6613 15.2515 18.1324 15.2515Z" fill="#CDFA8A"/>
<path d="M18.1325 0.487289H10.7503C9.22147 0.487289 7.98206 1.72669 7.98206 3.25558C7.98206 4.78447 9.22147 6.02387 10.7503 6.02387H18.1325C19.6613 6.02387 20.9008 4.78447 20.9008 3.25558C20.9008 1.72669 19.6613 0.487289 18.1325 0.487289Z" fill="#CDFA8A"/>
</g>
<defs>
<clipPath id="clip0_29_448">
<rect width="100" height="21.1003" fill="white" transform="translate(0.599976 0.449844)"/>
</clipPath>
</defs>
</svg>
