<svg width="101" height="28" viewBox="0 0 101 28" fill="none" xmlns="http://www.w3.org/2000/svg">
<g clip-path="url(#clip0_29_453)">
<path d="M7.1193 9.6798C4.73427 9.6798 3.56347 11.7817 3.56347 14.5883V21.6217H0.199951V6.77952H3.50455V10.6302H3.56192C4.26751 8.26266 5.67402 6.34962 7.84348 6.34962C9.3694 6.34962 10.0129 6.88238 10.0129 6.88238L8.49479 9.93926C8.49479 9.93773 8.01096 9.6798 7.1193 9.6798ZM47.7809 11.7172V21.6201H44.5042V12.9225C44.5042 10.426 43.7211 9.10404 41.7206 9.10404C39.6489 9.10404 38.6471 10.776 38.6471 13.9834V21.6185H35.3999V12.9225C35.3999 10.5227 34.6261 9.10404 32.6458 9.10404C30.3849 9.10404 29.5149 11.0846 29.5149 13.9834V21.6185H26.2103V6.77952H29.5149V10.1404H29.5443C30.0592 7.81434 31.4642 6.3788 33.8351 6.3788C36.1861 6.3788 37.7182 7.64238 38.2998 9.88246C38.8534 7.72682 40.3266 6.3788 42.5906 6.3788C45.7494 6.3788 47.7809 8.3594 47.7809 11.7172ZM16.6237 6.34962C13.5827 6.34962 11.5931 7.77749 10.686 10.3553L13.485 11.3733C13.9952 9.81797 15.059 8.93208 16.6826 8.93208C18.5094 8.93208 19.5825 9.7366 19.5825 10.971C19.5825 12.2331 18.7281 12.4972 16.7989 12.8088C14.6528 13.1543 9.54928 13.2679 9.54928 17.5729C9.54928 20.0955 11.6583 21.9932 14.8264 21.9932C17.2083 21.9932 18.8303 21.0199 19.5809 19.2081H19.6103V21.6201H22.887V12.4925C22.8856 8.4991 20.8758 6.34962 16.6237 6.34962ZM19.6678 14.6343C19.6678 17.7464 18.128 19.7455 15.6669 19.7455C13.927 19.7455 12.8834 18.7689 12.8834 17.3611C12.8834 16.0407 13.9565 15.1241 16.0142 14.7464C18.1201 14.3595 19.1809 13.882 19.6678 12.7367V14.6343ZM59.4362 6.3788C56.9302 6.3788 55.2739 7.756 54.5653 9.82565V6.77952H51.0855V27.3332H54.5358V18.5756H54.5653C55.3329 20.8172 56.9317 22.05 59.4362 22.05C63.4075 22.05 66.2501 18.7783 66.2501 14.1553C66.2485 9.56464 63.4075 6.3788 59.4362 6.3788ZM58.5802 19.2956C55.8291 19.2956 54.3033 17.2996 54.3033 14.1997C54.3033 11.1 56.0106 9.10404 58.5802 9.10404C61.1482 9.10404 62.857 11.1967 62.857 14.1997C62.857 17.2045 61.1497 19.2956 58.5802 19.2956Z" fill="#CDFA8A"/>
<path d="M100.43 21.5529V21.6456L86.9627 21.6503V21.5529C88.9047 20.4563 90.2451 19.3392 91.4512 18.1719H96.981L100.43 21.5529ZM97.0928 4.01488L93.6794 0.666672H93.5802C93.5802 0.666672 93.6378 6.90652 87.9066 12.5815C82.2984 18.1357 75.7034 18.1483 75.7034 18.1483V18.2456L79.1808 21.6519C79.1808 21.6519 85.6799 21.7161 91.4208 16.0851C97.1408 10.4728 97.0928 4.01488 97.0928 4.01488Z" fill="#CDFA8A"/>
</g>
<defs>
<clipPath id="clip0_29_453">
<rect width="100" height="26.6667" fill="white" transform="translate(0.199951 0.666672)"/>
</clipPath>
</defs>
</svg>
