<svg width="101" height="28" viewBox="0 0 101 28" fill="none" xmlns="http://www.w3.org/2000/svg">
<g clip-path="url(#clip0_29_457)">
<path fill-rule="evenodd" clip-rule="evenodd" d="M39.4486 18.2219H36.9353V10.6165H39.4486C40.5043 10.6165 41.3745 10.9689 42.0383 11.6679C42.7029 12.3729 43.0344 13.2918 43.0344 14.423C43.0344 15.5475 42.7029 16.4731 42.0383 17.1713C41.3745 17.8694 40.5043 18.2219 39.4486 18.2219ZM39.4486 8.12579H34.4177V20.7134H39.4486C41.1756 20.7134 42.6358 20.1033 43.7939 18.8983C44.9519 17.6932 45.5427 16.1869 45.5427 14.423C45.5427 12.6523 44.9527 11.1459 43.7939 9.94096C42.6358 8.73587 41.1756 8.12579 39.4486 8.12579ZM51.4018 18.5693C50.738 18.5693 50.1699 18.3477 49.7344 17.8979C49.2921 17.4482 49.063 16.8725 49.063 16.1793C49.063 15.4929 49.2921 14.9172 49.7344 14.4675C50.1699 14.0176 50.738 13.7961 51.4018 13.7961C52.0656 13.7961 52.6337 14.0176 53.076 14.4675C53.5266 14.9172 53.7557 15.4929 53.7557 16.1793C53.7557 16.8725 53.5266 17.4482 53.076 17.8979C52.6337 18.3477 52.0656 18.5693 51.4018 18.5693ZM54.8097 12.7857C53.8807 11.8635 52.7369 11.3986 51.4018 11.3986C50.0666 11.3986 48.9229 11.8635 48.0006 12.7857C47.0784 13.708 46.6135 14.8509 46.6135 16.1793C46.6135 17.5145 47.0784 18.6582 48.0006 19.5805C48.9229 20.5019 50.0666 20.9668 51.4018 20.9668C52.7369 20.9668 53.8807 20.5019 54.8097 19.5805C55.7327 18.6574 56.2043 17.5145 56.2043 16.1793C56.2043 14.8509 55.7319 13.708 54.8097 12.7857ZM65.8565 11.4825L62.53 20.7134H59.593L56.2363 11.4825H58.9292L61.0389 17.5757L63.1637 11.4825H65.8565ZM68.4244 15.2713C68.5646 14.7628 68.8155 14.3567 69.1847 14.0696C69.5758 13.7667 70.0768 13.6115 70.675 13.6115C71.176 13.6115 71.6334 13.7591 72.032 14.0478C72.4013 14.3197 72.6589 14.7259 72.7923 15.2713H68.4244ZM70.675 11.3986C69.2804 11.3986 68.1223 11.8559 67.2294 12.7639C66.3365 13.6786 65.8867 14.8215 65.8867 16.1793C65.8867 17.5514 66.3441 18.7019 67.2445 19.6099C68.1508 20.5095 69.3618 20.9668 70.8522 20.9668C72.5859 20.9668 73.9135 20.3182 74.7987 19.0267L74.8499 18.9603L72.8662 17.8174L72.8292 17.8677C72.3929 18.4442 71.7366 18.7321 70.8891 18.7321C69.5833 18.7321 68.7861 18.2303 68.4689 17.2048H75.1605L75.1747 17.1377C75.2335 16.8062 75.2637 16.4815 75.2637 16.1793C75.2637 14.8366 74.8273 13.6929 73.9646 12.7781C73.102 11.8635 71.9951 11.3986 70.675 11.3986ZM79.9883 14.0243V17.6613C79.9883 17.9483 80.0545 18.1556 80.1947 18.2807C80.3348 18.4132 80.5487 18.4871 80.829 18.5097C80.955 18.5165 81.0942 18.5165 81.242 18.5165C81.4484 18.5165 81.6775 18.5097 81.9284 18.4946H82.0022V20.7226L81.9351 20.7302C81.5071 20.7814 81.1018 20.804 80.7401 20.804C79.7591 20.804 79.0214 20.6269 78.5415 20.2728C77.8702 19.7861 77.5387 18.9075 77.5387 17.6613V14.0243H75.8142V11.7619H77.5387V9.87794L79.9883 9.1328V11.7619H81.6883V14.0243H79.9883ZM87.3695 18.628C86.6764 18.628 86.1007 18.393 85.6577 17.9424C85.2087 17.4927 84.9796 16.8951 84.9796 16.1793C84.9796 15.4711 85.2087 14.8736 85.6585 14.4238C86.1007 13.9656 86.684 13.7373 87.3704 13.7373C88.0569 13.7373 88.6392 13.9656 89.0966 14.4238C89.5464 14.8803 89.7746 15.4711 89.7746 16.1793C89.7746 16.8951 89.5464 17.4927 89.0966 17.9424C88.6392 18.3922 88.0636 18.628 87.3695 18.628ZM89.8032 11.4825V12.5776C89.11 11.7955 88.1298 11.3986 86.9416 11.3986C85.7391 11.3986 84.6842 11.8635 83.8282 12.7857C82.9656 13.708 82.53 14.8509 82.53 16.1793C82.53 17.5145 82.9665 18.6582 83.8291 19.5805C84.6851 20.5027 85.7324 20.9668 86.9424 20.9668C88.1298 20.9668 89.11 20.4843 89.8032 19.7022V20.7134H92.3208V11.4825H89.8032ZM94.1481 9.79494C94.0089 9.66176 93.8986 9.50139 93.8244 9.32386C93.7494 9.14633 93.7114 8.95535 93.7141 8.76272C93.7141 8.36999 93.8588 8.0209 94.1481 7.73054C94.4383 7.4318 94.7792 7.28662 95.1716 7.28662C95.5776 7.28662 95.9257 7.4318 96.215 7.7297C96.5053 8.0209 96.6508 8.36999 96.6508 8.76188C96.6508 9.15546 96.5053 9.50372 96.215 9.79404C96.0794 9.93219 95.9166 10.0414 95.7367 10.1152C95.5577 10.189 95.3651 10.226 95.1716 10.2237C94.9808 10.2247 94.7919 10.1872 94.6165 10.1135C94.4401 10.0398 94.281 9.93147 94.1481 9.79494ZM93.9989 20.7134H96.5161V11.4825H93.9989V20.7134ZM98.1951 20.7134H100.712V7.28662H98.1951V20.7134Z" fill="#CDFA8A"/>
<path fill-rule="evenodd" clip-rule="evenodd" d="M24.3478 17.3567L18.4736 20.7134V14L12.5994 10.6064L18.4736 7.28662L24.3478 10.6433V17.3567ZM12.5986 10.6433L6.72432 14V7.28662L0.850952 3.92993L6.72516 0.573242L12.5986 3.92993V10.6433ZM12.5986 24.0701L6.72432 27.4268L6.72516 20.7134L0.850952 17.3567L6.72432 14L12.5986 17.3567V24.0701Z" fill="#CDFA8A"/>
</g>
<defs>
<clipPath id="clip0_29_457">
<rect width="100" height="26.8535" fill="white" transform="translate(0.800049 0.573242)"/>
</clipPath>
</defs>
</svg>
