<svg width="101" height="24" viewBox="0 0 101 24" fill="none" xmlns="http://www.w3.org/2000/svg">
<g clip-path="url(#clip0_29_460)">
<path d="M16.6558 17.6201H16.8729V22.6201H16.0434C10.6791 22.6201 7.57832 19.5891 7.57832 14.6356V12.0774L9.3225 11.6511C9.83158 11.5223 10.2945 11.2537 10.6589 10.8756C11.0234 10.4975 11.2747 10.025 11.3845 9.51154C11.493 8.99952 11.4545 8.46728 11.2734 7.97623C11.0924 7.48518 10.7761 7.05534 10.3613 6.73632C9.94599 6.41663 9.44979 6.21894 8.92847 6.16538C8.40708 6.11182 7.88114 6.20452 7.40951 6.4331C6.93789 6.66166 6.53923 7.01707 6.25824 7.45948C5.97726 7.90188 5.82502 8.4138 5.81863 8.9379V19.8604H0.400024V8.7441C0.400024 8.41073 0.42328 8.0774 0.46204 7.74407C0.745711 5.78718 1.73071 4.00001 3.23373 2.71518C4.73675 1.43034 6.65539 0.735356 8.63258 0.759569C10.4241 0.741918 12.1723 1.31025 13.6109 2.37801C15.0495 3.44578 16.0997 4.95446 16.6016 6.6743C17.0977 8.45725 16.9349 10.3643 16.152 12.0387C15.4858 13.4625 14.419 14.6612 13.0822 15.4883C13.5318 17.2945 14.4775 17.6278 16.5938 17.6278L16.6558 17.6201ZM30.7179 7.03089V10.0852H30.2217C29.1675 10.0852 28.3458 10.3798 27.7566 10.9534C27.4545 11.2654 27.2201 11.6365 27.068 12.0433C26.9159 12.4501 26.8496 12.884 26.8729 13.3177V18.8294H23.9117V7.21694H26.8729V8.72084C27.2568 8.19352 27.7609 7.76522 28.3432 7.47136C28.9255 7.1775 29.5695 7.02651 30.2217 7.03089H30.7179ZM43.4543 14.0929H34.462C34.6403 14.7906 35.0667 15.4108 35.6481 15.8449C36.2372 16.2712 36.9504 16.4883 37.7876 16.4883C38.431 16.4883 39.0667 16.3565 39.6481 16.0774C40.1597 15.8449 40.6171 15.496 40.9814 15.0542L42.9582 16.7829C42.3379 17.5243 41.5555 18.1131 40.6713 18.5038C39.7411 18.9146 38.7179 19.1239 37.6946 19.1084C36.5441 19.1253 35.408 18.8507 34.3923 18.31C33.4291 17.8031 32.6251 17.0394 32.0696 16.1034C31.5141 15.1674 31.2286 14.0959 31.245 13.0077C31.245 11.9224 31.5163 10.8449 32.0512 9.90689C32.5791 8.99053 33.3487 8.23696 34.276 7.72856C35.2367 7.19844 36.3183 6.92604 37.4155 6.93787C38.2244 6.91315 39.0298 7.05426 39.782 7.3525C40.5344 7.65074 41.2177 8.0998 41.7899 8.672C42.3621 9.24425 42.8112 9.92751 43.1094 10.6798C43.4076 11.4322 43.5488 12.2375 43.5241 13.0464C43.5241 13.3953 43.5008 13.7441 43.4465 14.0929H43.4543ZM39.2682 10.186C38.7313 9.76666 38.0696 9.5389 37.3884 9.5389C36.7072 9.5389 36.0455 9.76666 35.5086 10.186C34.9651 10.6291 34.5836 11.2397 34.4233 11.9224H40.3613C40.201 11.2397 39.8194 10.6291 39.276 10.186H39.2682ZM62.5241 8.12391C62.9256 8.54014 63.2379 9.03402 63.4418 9.57518C63.6458 10.1163 63.7371 10.6935 63.7101 11.2712V18.8371H60.7411V12.155C60.7411 11.4418 60.5396 10.8681 60.121 10.4495C59.9056 10.2333 59.6475 10.0644 59.3632 9.95363C59.0789 9.84286 58.7746 9.79263 58.4698 9.80611C57.7489 9.80611 57.152 10.0232 56.7024 10.465C56.4751 10.6915 56.2979 10.9629 56.1817 11.2619C56.0655 11.561 56.0132 11.881 56.0279 12.2015V18.8371H53.0667V12.155C53.0667 11.4495 52.8574 10.8836 52.4388 10.4495C52.2182 10.2317 51.9548 10.0621 51.6652 9.95131C51.3757 9.84053 51.0662 9.79107 50.7566 9.80611C50.4341 9.79208 50.112 9.84325 49.8097 9.95642C49.5074 10.0696 49.231 10.2426 48.9969 10.465C48.7701 10.6918 48.593 10.9632 48.4769 11.2622C48.3608 11.5612 48.3082 11.881 48.3225 12.2015V18.8371H45.3613V7.21694H48.3148V8.41849C48.7425 7.93162 49.2734 7.54614 49.8687 7.29003C50.4641 7.03392 51.1089 6.91362 51.7566 6.93787C52.5008 6.92236 53.245 7.0929 53.9117 7.43399C54.5318 7.75182 55.0512 8.23244 55.4078 8.82937C55.8638 8.21695 56.4621 7.72475 57.1509 7.39521C57.8396 7.06568 58.5982 6.90871 59.3613 6.93787C60.6791 6.93787 61.7334 7.32546 62.5163 8.11616L62.5241 8.12391ZM77.9039 13.0232C77.9248 13.8309 77.7768 14.6341 77.4699 15.3815C77.1629 16.129 76.7035 16.8043 76.121 17.3643C75.5331 17.9393 74.8355 18.3901 74.0697 18.6898C73.3039 18.9895 72.4856 19.1318 71.6636 19.1084C69.8884 19.1084 68.4078 18.527 67.2062 17.3643C66.6209 16.8056 66.1586 16.131 65.8489 15.3835C65.5393 14.636 65.3889 13.832 65.4078 13.0232C65.4078 11.2945 66.0047 9.84487 67.2062 8.68208C67.7943 8.10731 68.492 7.65671 69.2577 7.35707C70.0234 7.05743 70.8417 6.91487 71.6636 6.93787C73.4388 6.93787 74.9194 7.51926 76.1132 8.68208C76.6972 9.24131 77.158 9.91627 77.4663 10.6638C77.7747 11.4112 77.9241 12.2148 77.9039 13.0232ZM73.9504 15.3255C74.2479 15.0222 74.481 14.6619 74.6355 14.2663C74.79 13.8706 74.8629 13.4477 74.8496 13.0232C74.8496 12.1084 74.5473 11.341 73.9504 10.7286C73.6549 10.4256 73.2998 10.1873 72.9075 10.0285C72.5153 9.86976 72.0944 9.79402 71.6713 9.80611C71.2479 9.79549 70.8267 9.87262 70.4345 10.0328C70.0423 10.1929 69.6874 10.4324 69.3923 10.7363C68.8068 11.3553 68.4805 12.175 68.4805 13.027C68.4805 13.8791 68.8068 14.6987 69.3923 15.3177C69.6877 15.6212 70.0426 15.8605 70.4348 16.0206C70.8269 16.1807 71.2479 16.2581 71.6713 16.248C72.5861 16.248 73.3458 15.9379 73.9427 15.3177L73.9504 15.3255ZM83.3225 9.92239V14.7519C83.3225 15.7441 83.8496 16.2402 84.9194 16.2402C85.4543 16.2247 85.9737 16.0852 86.4465 15.8526V18.6123C85.7721 18.9534 85.0279 19.1317 84.276 19.1084C82.9814 19.1084 81.9969 18.7674 81.3458 18.0697C80.6551 17.2883 80.3016 16.2657 80.3613 15.2247V9.92239H78.5086V7.21694H80.3613V5.27895L83.3148 4.2712V7.21694H86.4465V9.92239H83.3225ZM99.5628 14.0929H90.5551C90.7411 14.7906 91.1597 15.4108 91.7489 15.8449C92.3303 16.2712 93.0434 16.4883 93.8806 16.4883C94.5241 16.4883 95.1597 16.3565 95.7411 16.0774C96.2605 15.8449 96.7179 15.496 97.0744 15.0542L99.0589 16.7829C98.4388 17.527 97.6558 18.1084 96.7721 18.5038C95.8341 18.9146 94.8186 19.1239 93.7954 19.1084C92.645 19.1253 91.5086 18.8507 90.493 18.31C89.5287 17.8042 88.7225 17.0408 88.1659 16.1049C87.6093 15.1688 87.3225 14.0967 87.338 13.0077C87.338 11.9224 87.6171 10.8526 88.1442 9.90689C88.676 8.99255 89.4481 8.24178 90.3768 7.73631C91.3365 7.20349 92.4186 6.92841 93.5163 6.93787C95.2605 6.93787 96.7179 7.51926 97.8806 8.68208C98.4543 9.25146 98.9054 9.93255 99.2055 10.6832C99.5055 11.434 99.6481 12.2383 99.6248 13.0464C99.6248 13.3953 99.6016 13.7441 99.5628 14.0929ZM95.3845 10.186C94.8473 9.76472 94.1837 9.53588 93.5008 9.53588C92.8179 9.53588 92.1543 9.76472 91.6171 10.186C91.0768 10.6303 90.6977 11.2407 90.5396 11.9224H96.462C96.3039 11.2407 95.9248 10.6303 95.3845 10.186Z" fill="#CDFA8A"/>
</g>
<defs>
<clipPath id="clip0_29_460">
<rect width="100" height="22.4806" fill="white" transform="translate(0.400024 0.759689)"/>
</clipPath>
</defs>
</svg>
