<svg width="100" height="18" viewBox="0 0 100 18" fill="none" xmlns="http://www.w3.org/2000/svg">
<g clip-path="url(#clip0_29_462)">
<path fill-rule="evenodd" clip-rule="evenodd" d="M69.9673 13.8147C69.6621 13.8185 69.3594 13.7617 69.0763 13.6476C68.7935 13.5334 68.536 13.3643 68.3188 13.1498C67.8829 12.7139 67.5886 12.0518 67.5886 11.158C67.5886 10.2534 67.8829 9.59402 68.3188 9.15805C68.5368 8.9457 68.7948 8.77862 69.0777 8.66638C69.3608 8.55415 69.663 8.499 69.9673 8.5041C70.5886 8.5041 71.1799 8.72208 71.6158 9.15805C72.0518 9.59402 72.3433 10.2534 72.3433 11.158C72.3433 12.0627 72.0518 12.7221 71.6158 13.158C71.3978 13.3704 71.1398 13.5374 70.857 13.6497C70.5739 13.7619 70.2717 13.8171 69.9673 13.812V13.8147ZM69.9673 5.61309C66.812 5.61309 64.4224 7.93459 64.4224 11.158C64.4224 14.3597 66.812 16.703 69.9673 16.703C73.1226 16.703 75.5123 14.3597 75.5123 11.158C75.5123 7.93459 73.1226 5.61309 69.9673 5.61309ZM43.733 13.891C43.4278 13.8948 43.1251 13.838 42.842 13.7239C42.5592 13.6097 42.3017 13.4406 42.0845 13.2261C41.6485 12.7902 41.357 12.1308 41.357 11.237C41.357 10.3324 41.6512 9.67028 42.0845 9.23704C42.3027 9.02391 42.5611 8.85614 42.8444 8.74341C43.1278 8.63072 43.4308 8.57529 43.7357 8.58036C44.357 8.58036 44.9483 8.8011 45.3842 9.23434C45.8202 9.67031 46.1117 10.3324 46.1117 11.2343C46.1117 12.139 45.8175 12.8011 45.3842 13.2343C45.166 13.4475 44.9077 13.6152 44.6243 13.728C44.3409 13.8407 44.0379 13.8961 43.733 13.891ZM43.733 5.68938C40.5804 5.68938 38.1908 8.01363 38.1908 11.2343C38.1908 14.4387 40.5804 16.7793 43.733 16.7793C46.8883 16.7793 49.278 14.436 49.278 11.2343C49.278 8.01363 46.8883 5.69211 43.7357 5.69211L43.733 5.68938ZM84.1335 16.6676H87.2807V10.4169C87.2807 9.89919 87.4442 9.4496 87.7275 9.13352C87.885 8.96254 88.0774 8.82772 88.2921 8.73835C88.5066 8.64897 88.7379 8.60717 88.97 8.61581C89.5368 8.61581 89.9237 8.80652 90.1717 9.09535C90.4251 9.38963 90.5532 9.81745 90.5532 10.3352V16.6676H93.6812V10.4169C93.6812 9.91282 93.8447 9.4632 94.1281 9.13895C94.2812 8.96813 94.4698 8.83279 94.6807 8.74241C94.8916 8.65205 95.1194 8.60884 95.3488 8.61581C95.9292 8.61581 96.3134 8.80652 96.5586 9.09535C96.8093 9.38963 96.9346 9.81745 96.9346 10.3352V16.6676H100V9.77385C100 8.36513 99.5368 7.33788 98.8038 6.66758C98.0763 6.00001 97.1063 5.70301 96.1335 5.70301C95.4387 5.70301 94.8038 5.82287 94.2344 6.10897C93.7466 6.3542 93.3188 6.71391 92.9428 7.21527C92.3352 6.22617 91.2262 5.70301 89.9183 5.70301C88.9592 5.70301 87.8556 6.08448 87.1581 6.82017V5.95914H84.1335V16.6676ZM82.9483 5.96731V9.17437L82.703 9.12532C82.4115 9.0681 82.1581 9.0463 81.9237 9.0463C81.2562 9.0463 80.6622 9.20979 80.2371 9.60761C79.8147 10.0027 79.5232 10.6594 79.5232 11.7166V16.6676H76.3842V5.95914H79.4414V6.99453C80.1962 6.08445 81.3706 5.90461 82.109 5.90461C82.3433 5.90461 82.5586 5.92914 82.763 5.94821L82.9483 5.96731ZM26.3542 11.5068H29.4224L29.4578 11.5422C29.4796 11.564 29.4959 11.5967 29.4987 11.6322C29.512 11.9202 29.5823 12.2027 29.7057 12.4633C29.8295 12.7238 30.0036 12.9572 30.218 13.1498C30.6218 13.4794 31.1303 13.6534 31.6513 13.6403C31.9398 13.65 32.227 13.5967 32.4927 13.4843C32.7586 13.3718 32.9968 13.2028 33.1908 12.9891C33.5679 12.5317 33.7646 11.9521 33.7439 11.3597V2.38964H37.0627V11.4523C37.0627 14.3542 34.842 16.7793 31.673 16.7793C30.0927 16.7793 28.763 16.2534 27.8311 15.3406C26.921 14.4496 26.3788 13.1771 26.3542 11.6294V11.5068ZM63.9782 3.84197L64.1526 3.89374V1.46321L64.0709 1.42779C63.8948 1.35776 63.7109 1.30927 63.5232 1.28337C63.2916 1.24523 63.0191 1.2207 62.7412 1.2207C61.6594 1.2207 60.4442 1.58038 59.8147 2.22615C59.1853 2.86922 58.8365 3.78747 58.8365 4.88829V5.40055H57.2562V8.19075H58.8365V16.6676H62.0109V8.19075H64.1526V5.40055H62.0109V4.92644C62.0109 4.43325 62.1826 4.14715 62.4033 3.98366C62.639 3.82325 62.9196 3.74211 63.2044 3.75205C63.6131 3.75205 63.8529 3.80655 63.9782 3.84197ZM56.1199 14.1635L56.2834 14.1117V16.5504L56.2071 16.5885C56.0927 16.643 55.9074 16.6948 55.6921 16.733C55.4741 16.7684 55.2207 16.7929 54.9564 16.7929C53.9428 16.7929 52.8038 16.4333 52.2126 15.7848C51.6213 15.139 51.2943 14.218 51.2943 13.1144V8.19075H49.8093V5.41418H51.2943V2.40599H54.2725V5.4169H56.2834V8.19617H54.2725V13.0763C54.2725 13.5722 54.436 13.8583 54.6431 14.0245C54.8556 14.1962 55.1363 14.2561 55.3951 14.2561C55.7793 14.2561 56.0028 14.2016 56.1199 14.1662V14.1635Z" fill="#CDFA8A"/>
<path d="M4.47684 17.1008C4.81471 17.4278 4.57493 17.9918 4.09537 17.9918H1.07629C0.794916 17.9955 0.52358 17.8874 0.321809 17.6912C0.120038 17.4951 0.00430572 17.2269 0 16.9455V14.0245C0 13.5559 0.580382 13.3243 0.920981 13.654L4.47684 17.1008Z" fill="#CDFA8A"/>
<path d="M9.18792 17.327C8.97621 17.1168 8.80817 16.8668 8.69348 16.5913C8.57882 16.3159 8.51978 16.0205 8.51978 15.7221C8.51978 15.4237 8.57882 15.1283 8.69348 14.8529C8.80817 14.5775 8.97621 14.3274 9.18792 14.1172L12.4086 10.9183C12.8384 10.492 13.4191 10.2528 14.0244 10.2528C14.6297 10.2528 15.2105 10.492 15.6402 10.9183C15.852 11.1285 16.02 11.3785 16.1347 11.654C16.2494 11.9294 16.3084 12.2248 16.3084 12.5232C16.3084 12.8216 16.2494 13.117 16.1347 13.3924C16.02 13.6679 15.852 13.9179 15.6402 14.1281L12.4195 17.327C11.9898 17.7533 11.409 17.9925 10.8037 17.9925C10.1984 17.9925 9.61765 17.7533 9.18792 17.327Z" fill="#CDFA8A"/>
<path d="M0.681208 9.28611C0.469481 9.07589 0.301443 8.82586 0.18677 8.55044C0.0720979 8.27499 0.0130615 7.97957 0.0130615 7.68121C0.0130615 7.38287 0.0720979 7.08745 0.18677 6.812C0.301443 6.53655 0.469481 6.28652 0.681208 6.0763L6.10084 0.689388C6.53054 0.263088 7.11133 0.02388 7.71664 0.02388C8.32193 0.02388 8.90272 0.263088 9.33245 0.689388C9.54416 0.899603 9.7122 1.14964 9.82686 1.42508C9.94155 1.70052 10.0006 1.99593 10.0006 2.29429C10.0006 2.59265 9.94155 2.88807 9.82686 3.16352C9.7122 3.43894 9.54416 3.68897 9.33245 3.89919L3.9101 9.28611C3.48049 9.71159 2.9003 9.95028 2.29565 9.95028C1.69101 9.95028 1.11082 9.71159 0.681208 9.28611Z" fill="#CDFA8A"/>
<path d="M5.11175 13.1281C4.90001 12.9179 4.73197 12.6678 4.61731 12.3924C4.50262 12.1169 4.4436 11.8215 4.4436 11.5232C4.4436 11.2248 4.50262 10.9294 4.61731 10.6539C4.73197 10.3785 4.90001 10.1285 5.11175 9.91826L12.4333 2.64305C12.863 2.21675 13.4438 1.97754 14.0491 1.97754C14.6544 1.97754 15.2352 2.21675 15.6649 2.64305C15.8766 2.85325 16.0446 3.1033 16.1593 3.37873C16.274 3.65418 16.333 3.9496 16.333 4.24796C16.333 4.5463 16.274 4.84172 16.1593 5.11717C16.0446 5.39262 15.8766 5.64265 15.6649 5.85287L8.34336 13.1281C7.91363 13.5544 7.33284 13.7936 6.72755 13.7936C6.12224 13.7936 5.54145 13.5544 5.11175 13.1281Z" fill="#CDFA8A"/>
</g>
<defs>
<clipPath id="clip0_29_462">
<rect width="100" height="17.9837" fill="white" transform="translate(0 0.00817871)"/>
</clipPath>
</defs>
</svg>
