<svg width="142" height="42" viewBox="0 0 142 42" fill="none" xmlns="http://www.w3.org/2000/svg">
<rect width="40" height="42" rx="6" fill="#CDFA8A"/>
<rect opacity="0.8" x="6.39374" y="13.7178" width="15.1273" height="20.389" rx="4" transform="rotate(-19.6862 6.39374 13.7178)" fill="#0E2E28"/>
<rect x="18.4388" y="6.78427" width="17.5992" height="23.1989" rx="4.75" transform="rotate(11.2938 18.4388 6.78427)" fill="#0E2E28" stroke="#CDFA8A" stroke-width="1.5"/>
<path d="M21.5972 18.607L22.4756 21.1847C22.6779 21.7784 23.3705 22.0415 23.9159 21.7318L29.0378 18.8234" stroke="#CDFA8A" stroke-width="2" stroke-linecap="round"/>
<path d="M54.944 29V12.536H63.68C64.592 12.536 65.392 12.704 66.08 13.04C66.768 13.36 67.304 13.824 67.688 14.432C68.088 15.04 68.288 15.752 68.288 16.568C68.288 17.192 68.168 17.76 67.928 18.272C67.704 18.784 67.384 19.216 66.968 19.568C66.568 19.92 66.112 20.184 65.6 20.36V20.456C66.192 20.584 66.72 20.824 67.184 21.176C67.664 21.512 68.04 21.96 68.312 22.52C68.6 23.064 68.744 23.72 68.744 24.488C68.744 25.528 68.512 26.384 68.048 27.056C67.6 27.728 67 28.224 66.248 28.544C65.496 28.848 64.64 29 63.68 29H54.944ZM57.632 26.696H63.464C64.2 26.696 64.8 26.504 65.264 26.12C65.744 25.72 65.984 25.08 65.984 24.2C65.984 23.672 65.88 23.224 65.672 22.856C65.48 22.472 65.184 22.184 64.784 21.992C64.384 21.784 63.88 21.68 63.272 21.68H57.632V26.696ZM57.632 19.424H63.056C63.568 19.424 64.008 19.328 64.376 19.136C64.744 18.944 65.024 18.672 65.216 18.32C65.424 17.968 65.528 17.576 65.528 17.144C65.528 16.36 65.312 15.784 64.88 15.416C64.464 15.032 63.912 14.84 63.224 14.84H57.632V19.424ZM71.4596 14.192V11.648H73.9556V14.192H71.4596ZM71.4596 29V16.376H73.9556V29H71.4596ZM77.1783 29V11.648H79.6743V29H77.1783ZM82.8971 29V11.648H85.3931V29H82.8971ZM89.1918 29V12.536H101.792V14.168H91.0878V19.736H100.736V21.392H91.0878V27.368H101.936V29H89.1918ZM108.121 29.288C107.625 29.288 107.137 29.224 106.657 29.096C106.177 28.984 105.745 28.8 105.361 28.544C104.993 28.272 104.697 27.912 104.473 27.464C104.249 27.016 104.137 26.464 104.137 25.808C104.137 24.944 104.345 24.24 104.761 23.696C105.193 23.136 105.793 22.704 106.561 22.4C107.329 22.08 108.233 21.864 109.273 21.752C110.329 21.64 111.473 21.584 112.705 21.584V19.976C112.705 19.464 112.609 19.032 112.417 18.68C112.241 18.312 111.921 18.032 111.457 17.84C111.009 17.632 110.369 17.528 109.537 17.528C108.737 17.528 108.105 17.632 107.641 17.84C107.177 18.048 106.849 18.32 106.657 18.656C106.481 18.976 106.393 19.336 106.393 19.736V20.12H104.737C104.721 20.04 104.713 19.96 104.713 19.88C104.713 19.8 104.713 19.704 104.713 19.592C104.713 18.792 104.921 18.136 105.337 17.624C105.753 17.112 106.345 16.728 107.113 16.472C107.881 16.216 108.761 16.088 109.753 16.088C110.761 16.088 111.609 16.24 112.297 16.544C112.985 16.832 113.513 17.248 113.881 17.792C114.249 18.336 114.433 18.992 114.433 19.76V27.008C114.433 27.312 114.489 27.528 114.601 27.656C114.729 27.768 114.897 27.824 115.105 27.824H116.113V28.928C115.873 29.024 115.617 29.104 115.345 29.168C115.089 29.232 114.817 29.264 114.529 29.264C114.113 29.264 113.777 29.176 113.521 29C113.281 28.824 113.105 28.576 112.993 28.256C112.897 27.936 112.833 27.584 112.801 27.2H112.633C112.329 27.632 111.937 28.008 111.457 28.328C110.993 28.632 110.481 28.864 109.921 29.024C109.361 29.2 108.761 29.288 108.121 29.288ZM108.481 27.824C109.009 27.824 109.521 27.736 110.017 27.56C110.513 27.384 110.961 27.144 111.361 26.84C111.761 26.52 112.081 26.144 112.321 25.712C112.577 25.28 112.705 24.8 112.705 24.272V22.976C111.217 22.976 109.969 23.056 108.961 23.216C107.969 23.376 107.217 23.656 106.705 24.056C106.209 24.456 105.961 25.016 105.961 25.736C105.961 26.216 106.065 26.616 106.273 26.936C106.497 27.24 106.801 27.464 107.185 27.608C107.569 27.752 108.001 27.824 108.481 27.824ZM122.114 29.288C121.282 29.288 120.546 29.2 119.906 29.024C119.266 28.864 118.73 28.624 118.298 28.304C117.882 27.968 117.562 27.568 117.338 27.104C117.13 26.64 117.026 26.104 117.026 25.496C117.026 25.432 117.026 25.368 117.026 25.304C117.026 25.224 117.034 25.152 117.05 25.088H118.754C118.738 25.168 118.73 25.24 118.73 25.304C118.73 25.352 118.73 25.4 118.73 25.448C118.746 26.072 118.898 26.56 119.186 26.912C119.474 27.248 119.882 27.488 120.41 27.632C120.938 27.776 121.546 27.848 122.234 27.848C122.826 27.848 123.354 27.768 123.818 27.608C124.298 27.432 124.674 27.184 124.946 26.864C125.234 26.544 125.378 26.152 125.378 25.688C125.378 25.096 125.194 24.648 124.826 24.344C124.474 24.04 124.01 23.808 123.434 23.648C122.858 23.472 122.258 23.288 121.634 23.096C121.122 22.952 120.618 22.8 120.122 22.64C119.626 22.464 119.17 22.248 118.754 21.992C118.354 21.736 118.034 21.408 117.794 21.008C117.554 20.608 117.434 20.104 117.434 19.496C117.434 18.968 117.538 18.496 117.746 18.08C117.97 17.664 118.282 17.312 118.682 17.024C119.098 16.72 119.602 16.488 120.194 16.328C120.786 16.168 121.458 16.088 122.21 16.088C123.042 16.088 123.754 16.184 124.346 16.376C124.938 16.568 125.418 16.832 125.786 17.168C126.154 17.488 126.426 17.856 126.602 18.272C126.778 18.672 126.866 19.096 126.866 19.544C126.866 19.608 126.858 19.68 126.842 19.76C126.842 19.84 126.842 19.912 126.842 19.976H125.138V19.664C125.138 19.328 125.05 19 124.874 18.68C124.714 18.36 124.418 18.088 123.986 17.864C123.57 17.64 122.946 17.528 122.114 17.528C121.618 17.528 121.186 17.576 120.818 17.672C120.466 17.752 120.162 17.872 119.906 18.032C119.666 18.192 119.482 18.392 119.354 18.632C119.242 18.856 119.186 19.12 119.186 19.424C119.186 19.888 119.33 20.248 119.618 20.504C119.922 20.744 120.314 20.944 120.794 21.104C121.274 21.248 121.786 21.408 122.33 21.584C122.874 21.744 123.426 21.912 123.986 22.088C124.562 22.264 125.09 22.48 125.57 22.736C126.05 22.992 126.434 23.336 126.722 23.768C127.01 24.184 127.154 24.736 127.154 25.424C127.154 26.064 127.026 26.632 126.77 27.128C126.514 27.608 126.162 28.008 125.714 28.328C125.266 28.648 124.73 28.888 124.106 29.048C123.498 29.208 122.834 29.288 122.114 29.288ZM134.669 29.288C133.469 29.288 132.453 29.056 131.621 28.592C130.789 28.112 130.157 27.384 129.725 26.408C129.293 25.432 129.077 24.192 129.077 22.688C129.077 21.168 129.293 19.928 129.725 18.968C130.157 17.992 130.797 17.272 131.645 16.808C132.493 16.328 133.549 16.088 134.813 16.088C135.981 16.088 136.957 16.32 137.741 16.784C138.541 17.248 139.141 17.92 139.541 18.8C139.957 19.68 140.165 20.76 140.165 22.04V23.144H130.877C130.877 24.248 131.029 25.152 131.333 25.856C131.637 26.56 132.069 27.072 132.629 27.392C133.205 27.696 133.909 27.848 134.741 27.848C135.349 27.848 135.877 27.768 136.325 27.608C136.789 27.448 137.165 27.232 137.453 26.96C137.757 26.672 137.989 26.336 138.149 25.952C138.309 25.568 138.389 25.168 138.389 24.752H140.069C140.069 25.376 139.949 25.968 139.709 26.528C139.485 27.072 139.149 27.552 138.701 27.968C138.269 28.384 137.717 28.712 137.045 28.952C136.373 29.176 135.581 29.288 134.669 29.288ZM130.877 21.776H138.365C138.365 20.976 138.269 20.312 138.077 19.784C137.901 19.24 137.653 18.808 137.333 18.488C137.013 18.152 136.629 17.912 136.181 17.768C135.749 17.624 135.261 17.552 134.717 17.552C133.933 17.552 133.261 17.704 132.701 18.008C132.141 18.296 131.709 18.752 131.405 19.376C131.117 20 130.941 20.8 130.877 21.776Z" fill="#0E2E28"/>
</svg>
